<svg xmlns="http://www.w3.org/2000/svg" fill="none" viewBox="-0.5 -0.5 24 24" id="Close--Streamline-Rounded-Material.svg" height="24" width="24"><desc>Close Streamline Icon: https://streamlinehq.com</desc><path fill="#000000" d="m11.5 12.506345833333334 -5.03125 5.03125c-0.14375 0.14375 -0.31145833333333334 0.215625 -0.503125 0.215625s-0.359375 -0.071875 -0.503125 -0.215625c-0.14375 -0.14375 -0.215625 -0.31145833333333334 -0.215625 -0.503125s0.071875 -0.359375 0.215625 -0.503125l5.03125 -5.03125 -5.03125 -5.03125c-0.14375 -0.14375 -0.215625 -0.31145833333333334 -0.215625 -0.503125s0.071875 -0.359375 0.215625 -0.503125c0.14375 -0.14375 0.31145833333333334 -0.215625 0.503125 -0.215625s0.359375 0.071875 0.503125 0.215625l5.03125 5.03125 5.03125 -5.03125c0.14375 -0.14375 0.31145833333333334 -0.215625 0.503125 -0.215625s0.359375 0.071875 0.503125 0.215625c0.14375 0.14375 0.215625 0.31145833333333334 0.215625 0.503125s-0.071875 0.359375 -0.215625 0.503125l-5.03125 5.03125 5.03125 5.03125c0.14375 0.14375 0.215625 0.31145833333333334 0.215625 0.503125s-0.071875 0.359375 -0.215625 0.503125c-0.14375 0.14375 -0.31145833333333334 0.215625 -0.503125 0.215625s-0.359375 -0.071875 -0.503125 -0.215625l-5.03125 -5.03125Z" stroke-width="1"></path></svg>