<svg xmlns="http://www.w3.org/2000/svg" fill="none" viewBox="0 0 48 48" id="Search-Circle--Streamline-Ionic-Filled.svg" height="48" width="48"><desc>Search Circle Streamline Icon: https://streamlinehq.com</desc><path fill="#000000" d="M24.0001 0.48C11.0309 0.48 0.48 11.0309 0.48 24.0001S11.0309 47.52 24.0001 47.52c12.9691 0 23.5199 -10.5508 23.5199 -23.5199S36.9692 0.48 24.0001 0.48Zm11.1854 34.7055c-0.3675 0.3672 -0.8658 0.5737 -1.3854 0.5737 -0.5197 0 -1.0181 -0.2065 -1.3855 -0.5737l-5.2479 -5.2467c-2.2171 1.5257 -4.9243 2.1677 -7.5903 1.8001 -2.666 -0.3677 -5.0984 -1.7183 -6.82 -3.7869 -1.7214 -2.0686 -2.6077 -4.706 -2.4848 -7.3945 0.1229 -2.6884 1.2461 -5.234 3.1491 -7.1369 1.9028 -1.9029 4.4484 -3.0261 7.1369 -3.1491 2.6885 -0.1228 5.3258 0.7635 7.3944 2.4849 2.0686 1.7216 3.4192 4.154 3.7869 6.82 0.3676 2.666 -0.2744 5.3732 -1.8001 7.5903l5.2467 5.2479c0.3672 0.3674 0.5737 0.8658 0.5737 1.3855 0 0.5196 -0.2065 1.0179 -0.5737 1.3855Z" stroke-width="1"></path><path fill="#000000" d="M21.0597 27.9192c3.7884 0 6.8595 -3.0711 6.8595 -6.8594 0 -3.7885 -3.0711 -6.8596 -6.8595 -6.8596 -3.7884 0 -6.8595 3.0711 -6.8595 6.8596 0 3.7883 3.0711 6.8594 6.8595 6.8594Z" stroke-width="1"></path></svg>