<?xml version="1.0" encoding="UTF-8"?>
<svg version="1.1" xmlns="http://www.w3.org/2000/svg" width="500" height="500">
<path d="M0 0 C165 0 330 0 500 0 C500 165 500 330 500 500 C335 500 170 500 0 500 C0 335 0 170 0 0 Z " fill="#000000" transform="translate(0,0)"/>
<path d="M0 0 C146.52 0 293.04 0 444 0 C444 2.31 444 4.62 444 7 C297.48 7 150.96 7 0 7 C0 4.69 0 2.38 0 0 Z " fill="#FFFFFF" transform="translate(36,281)"/>
<path d="M0 0 C4.47904099 -0.087842 8.95785724 -0.14067447 13.4375 -0.1875 C14.69755859 -0.21263672 15.95761719 -0.23777344 17.25585938 -0.26367188 C25.43748365 -0.3277577 32.96954147 -0.24402759 39.5625 5.0625 C41.67805306 9.38558669 41.9000539 13.28247609 41 18 C38.13789725 21.92516949 35.4439145 23.3269969 31 25 C32.71238576 28.57080284 34.44779944 32.12993519 36.1875 35.6875 C36.67025391 36.69490234 37.15300781 37.70230469 37.65039062 38.74023438 C38.13056641 39.71669922 38.61074219 40.69316406 39.10546875 41.69921875 C39.75745239 43.04246216 39.75745239 43.04246216 40.42260742 44.4128418 C42.25639955 47.64913149 42.25639955 47.64913149 47 52 C42.05 52 37.1 52 32 52 C31.26394531 50.27910156 30.52789062 48.55820312 29.76953125 46.78515625 C28.7848496 44.54383325 27.79911796 42.30297133 26.8125 40.0625 C26.32974609 38.92619141 25.84699219 37.78988281 25.34960938 36.61914062 C24.86943359 35.53955078 24.38925781 34.45996094 23.89453125 33.34765625 C23.45987549 32.34742432 23.02521973 31.34719238 22.57739258 30.31665039 C21.18264925 27.75198934 21.18264925 27.75198934 18.3190918 27.16577148 C17.5537915 27.11106689 16.78849121 27.0563623 16 27 C16.0807876 30.60509105 16.19363684 34.20847921 16.3125 37.8125 C16.33505859 38.83666016 16.35761719 39.86082031 16.38085938 40.91601562 C16.4340332 42.39038086 16.4340332 42.39038086 16.48828125 43.89453125 C16.51446533 44.80050049 16.54064941 45.70646973 16.56762695 46.63989258 C16.84465137 49.41276088 16.84465137 49.41276088 20 52 C13.4 52 6.8 52 0 52 C0.99 51.01 1.98 50.02 3 49 C3.45258777 46.86844405 3.45258777 46.86844405 3.38818359 44.484375 C3.39764008 43.57333008 3.40709656 42.66228516 3.4168396 41.72363281 C3.41076691 40.74233398 3.40469421 39.76103516 3.3984375 38.75 C3.40130768 37.7403418 3.40417786 36.73068359 3.40713501 35.69042969 C3.40917688 33.55533284 3.40363846 31.42021734 3.39111328 29.28515625 C3.37506178 26.01259629 3.39095825 22.74127144 3.41015625 19.46875 C3.40817384 17.3958306 3.40433021 15.32291197 3.3984375 13.25 C3.40451019 12.26870117 3.41058289 11.28740234 3.4168396 10.27636719 C3.40738312 9.36532227 3.39792664 8.45427734 3.38818359 7.515625 C3.38579681 6.71415039 3.38341003 5.91267578 3.38095093 5.08691406 C2.91303473 2.52358943 1.97758859 1.63189808 0 0 Z " fill="#F7F7F7" transform="translate(212,225)"/>
<path d="M0 0 C6.6 0 13.2 0 20 0 C18.02 0.99 18.02 0.99 16 2 C16 9.26 16 16.52 16 24 C21.94 24 27.88 24 34 24 C34 16.74 34 9.48 34 2 C32.68 1.34 31.36 0.68 30 0 C36.93 0 43.86 0 51 0 C49.68 0.99 48.36 1.98 47 3 C46.39832728 5.0741197 46.39832728 5.0741197 46.48242188 7.40795898 C46.46981323 8.29575546 46.45720459 9.18355194 46.44421387 10.09825134 C46.45231079 11.05453934 46.46040771 12.01082733 46.46875 12.99609375 C46.4649231 13.98118423 46.46109619 14.96627472 46.45715332 15.98121643 C46.45443075 18.06504335 46.46181599 20.14890424 46.47851562 22.23266602 C46.49989719 25.42216315 46.47873695 28.60940178 46.453125 31.79882812 C46.45576866 33.82292164 46.46089443 35.84701375 46.46875 37.87109375 C46.46065308 38.82535751 46.45255615 39.77962128 46.44421387 40.76280212 C46.45682251 41.65375076 46.46943115 42.5446994 46.48242188 43.46264648 C46.48560425 44.24413559 46.48878662 45.02562469 46.49206543 45.83079529 C46.95239308 48.65542059 46.95239308 48.65542059 51 52 C44.07 52 37.14 52 30 52 C31.32 51.34 32.64 50.68 34 50 C34 42.08 34 34.16 34 26 C28.06 26 22.12 26 16 26 C16.08674658 29.77198057 16.19360515 33.54151419 16.3125 37.3125 C16.33505859 38.38435547 16.35761719 39.45621094 16.38085938 40.56054688 C16.4340332 42.10258789 16.4340332 42.10258789 16.48828125 43.67578125 C16.51446533 44.62364502 16.54064941 45.57150879 16.56762695 46.5480957 C16.82937966 49.40294438 16.82937966 49.40294438 20 52 C13.07 52 6.14 52 -1 52 C0.32 51.34 1.64 50.68 3 50 C3.07596686 43.36148394 3.12856456 36.72307965 3.16479492 30.08422852 C3.17989602 27.82507132 3.20037842 25.56594351 3.22631836 23.30688477 C3.26264308 20.06258907 3.27971308 16.81868044 3.29296875 13.57421875 C3.30845261 12.56163498 3.32393646 11.54905121 3.33988953 10.50578308 C3.34011612 9.56503433 3.34034271 8.62428558 3.34057617 7.6550293 C3.35056892 6.41259712 3.35056892 6.41259712 3.36076355 5.14506531 C3.1390724 2.5590351 3.1390724 2.5590351 0 0 Z " fill="#F6F6F6" transform="translate(412,225)"/>
<path d="M0 0 C2.64 0 5.28 0 8 0 C10.1001988 6.01379171 12.19973903 12.02781305 14.29882812 18.04199219 C15.01254467 20.08664113 15.72641028 22.13123805 16.44042969 24.17578125 C17.46849416 27.11965388 18.4960171 30.06371504 19.5234375 33.0078125 C19.84122162 33.9174173 20.15900574 34.82702209 20.48641968 35.76419067 C20.7865799 36.62462982 21.08674011 37.48506897 21.39599609 38.37158203 C21.81906036 39.57672455 21.81906036 39.57672455 22.25067139 40.80621338 C22.88692092 42.6689418 23.4648352 44.55143431 24.02978516 46.43701172 C24.92736923 49.33834149 24.92736923 49.33834149 28 52 C21.4 52 14.8 52 8 52 C8.66 51.34 9.32 50.68 10 50 C10.4522104 44.34736994 9.43991752 40.7596701 8 35 C2.06 35 -3.88 35 -10 35 C-10.433125 37.041875 -10.433125 37.041875 -10.875 39.125 C-11.69731147 42.84302258 -12.71188034 46.41166665 -14 50 C-12.68 50.66 -11.36 51.32 -10 52 C-13.63 52 -17.26 52 -21 52 C-20.2572583 51.22962402 -19.5145166 50.45924805 -18.74926758 49.66552734 C-15.21152911 45.40356482 -13.73909245 40.54809201 -12.01171875 35.3515625 C-11.66365677 34.33903412 -11.31559479 33.32650574 -10.95698547 32.28329468 C-9.85482015 29.06792047 -8.77095145 25.84672215 -7.6875 22.625 C-6.94065506 20.43578751 -6.1926208 18.24698037 -5.44335938 16.05859375 C-3.61511074 10.71034529 -1.80181955 5.35720631 0 0 Z " fill="#F6F6F6" transform="translate(331,225)"/>
<path d="M0 0 C5.04138715 -0.84695304 10.04628373 -1.52372667 15 0 C18.79389496 3.4031075 21.04969408 7.35245417 23.59716797 11.72607422 C26.32085553 16.14104567 29.51353528 20.22911076 32.625 24.375 C33.84754741 26.02776386 35.06900077 27.68133788 36.2890625 29.3359375 C37.19256101 30.55740066 38.09614688 31.77879923 39 33 C39.0989211 28.78253675 39.17149012 24.56568879 39.21972656 20.34741211 C39.23983525 18.91272214 39.26712673 17.47811407 39.30175781 16.04370117 C39.3503146 13.98075161 39.37297406 11.91888569 39.390625 9.85546875 C39.41157227 8.61434326 39.43251953 7.37321777 39.45410156 6.09448242 C39.29602432 2.48825928 39.29602432 2.48825928 35 0 C38.63 0 42.26 0 46 0 C45.01 0.99 44.02 1.98 43 3 C42.52900985 5.27438288 42.52900985 5.27438288 42.56762695 7.83862305 C42.53793571 9.30980843 42.53793571 9.30980843 42.50764465 10.81071472 C42.50125473 11.86704605 42.49486481 12.92337738 42.48828125 14.01171875 C42.47033005 15.09508011 42.45237885 16.17844147 42.43388367 17.29463196 C42.37965015 20.75888157 42.34584256 24.22299238 42.3125 27.6875 C42.27933851 30.03452458 42.24484996 32.38153081 42.20898438 34.72851562 C42.12391626 40.48555262 42.05562168 46.2426073 42 52 C37.19433594 52.1708374 37.19433594 52.1708374 35.4453125 50.63330078 C35.00960937 49.99376465 34.57390625 49.35422852 34.125 48.6953125 C33.62073486 47.97480713 33.11646973 47.25430176 32.59692383 46.51196289 C32.06993896 45.72426514 31.5429541 44.93656738 31 44.125 C29.85858561 42.48011287 28.71664232 40.83559264 27.57421875 39.19140625 C26.98946777 38.33820801 26.4047168 37.48500977 25.80224609 36.60595703 C22.87560049 32.37417498 19.8400336 28.22237212 16.8125 24.0625 C15.73465409 22.57495946 14.65775576 21.08673162 13.58203125 19.59765625 C12.90491089 18.66191772 12.90491089 18.66191772 12.21411133 17.70727539 C11.11300446 16.15890613 10.05391339 14.58087009 9 13 C8.92586479 18.07198888 8.87140549 23.14366268 8.83520508 28.21606445 C8.82011484 29.94170627 8.79964025 31.66730972 8.77368164 33.39282227 C8.73730791 35.87265488 8.72027641 38.35198064 8.70703125 40.83203125 C8.69154739 41.60400345 8.67606354 42.37597565 8.66011047 43.17134094 C8.62538033 45.60260483 8.62538033 45.60260483 9 49 C9.99 49.99 10.98 50.98 12 52 C8.37 52 4.74 52 1 52 C1.33 51.34 1.66 50.68 2 50 C2.99 50 3.98 50 5 50 C5.12401028 44.00438911 5.21453355 38.00953197 5.2746582 32.01293945 C5.29973349 29.97504667 5.33380258 27.93724321 5.37719727 25.8996582 C5.4381571 22.9628287 5.46627975 20.02719262 5.48828125 17.08984375 C5.51408768 16.18540024 5.5398941 15.28095673 5.56648254 14.34910583 C5.56928989 7.95348791 4.17834839 4.85498058 0 0 Z " fill="#FAFAFA" transform="translate(38,225)"/>
<path d="M0 0 C6.6 0 13.2 0 20 0 C18.02 0.99 18.02 0.99 16 2 C16.06689892 8.63895718 16.1566649 15.27732075 16.26245117 21.91577148 C16.29573686 24.17481431 16.32375733 26.43394103 16.34643555 28.69311523 C16.37991426 31.93770148 16.43222718 35.18151633 16.48828125 38.42578125 C16.49467117 39.43836502 16.5010611 40.45094879 16.50764465 41.49421692 C16.53733589 42.90534004 16.53733589 42.90534004 16.56762695 44.3449707 C16.57873001 45.17325882 16.58983307 46.00154694 16.60127258 46.85493469 C16.87209577 49.43806997 16.87209577 49.43806997 20 52 C13.07 52 6.14 52 -1 52 C0.32 51.34 1.64 50.68 3 50 C3.07596686 43.36148394 3.12856456 36.72307965 3.16479492 30.08422852 C3.17989602 27.82507132 3.20037842 25.56594351 3.22631836 23.30688477 C3.26264308 20.06258907 3.27971308 16.81868044 3.29296875 13.57421875 C3.30845261 12.56163498 3.32393646 11.54905121 3.33988953 10.50578308 C3.34011612 9.56503433 3.34034271 8.62428558 3.34057617 7.6550293 C3.35056892 6.41259712 3.35056892 6.41259712 3.36076355 5.14506531 C3.1390724 2.5590351 3.1390724 2.5590351 0 0 Z " fill="#F7F7F7" transform="translate(139,225)"/>
<path d="M0 0 C3.96 0 7.92 0 12 0 C12 16.5 12 33 12 50 C8.04 50 4.08 50 0 50 C0 33.5 0 17 0 0 Z " fill="#584434" transform="translate(430,153)"/>
<path d="M0 0 C10.72005098 1.58198811 10.72005098 1.58198811 15 6 C16.86091735 9.7218347 16.5680311 13.94719381 16 18 C13.13789725 21.92516949 10.4439145 23.3269969 6 25 C7.71238576 28.57080284 9.44779944 32.12993519 11.1875 35.6875 C11.91163086 37.19860352 11.91163086 37.19860352 12.65039062 38.74023438 C13.13056641 39.71669922 13.61074219 40.69316406 14.10546875 41.69921875 C14.54012451 42.59471436 14.97478027 43.49020996 15.42260742 44.4128418 C17.25639955 47.64913149 17.25639955 47.64913149 22 52 C17.05 52 12.1 52 7 52 C5.16439664 48.02186609 3.33141356 44.04256214 1.5 40.0625 C0.71302734 38.35803711 0.71302734 38.35803711 -0.08984375 36.61914062 C-0.58613281 35.53955078 -1.08242187 34.45996094 -1.59375 33.34765625 C-2.05458984 32.34742432 -2.51542969 31.34719238 -2.99023438 30.31665039 C-4 28 -4 28 -4 27 C-5.65 26.67 -7.3 26.34 -9 26 C-9 25.67 -9 25.34 -9 25 C-8.39671875 24.98582031 -7.7934375 24.97164062 -7.171875 24.95703125 C-3.21710854 24.72102099 -0.68635184 24.50220866 2.5625 22.125 C4.68855291 17.50314585 4.64214445 13.01022007 4 8 C2.9316038 5.3661711 2.02801982 4.02801982 0 2 C0 1.34 0 0.68 0 0 Z " fill="#F7F7F7" transform="translate(237,225)"/>
<path d="M0 0 C3.3 0 6.6 0 10 0 C10 16.5 10 33 10 50 C6.7 50 3.4 50 0 50 C0 33.5 0 17 0 0 Z " fill="#86876B" transform="translate(330,153)"/>
<path d="M0 0 C2.64 0 5.28 0 8 0 C8 16.5 8 33 8 50 C5.36 50 2.72 50 0 50 C0 33.5 0 17 0 0 Z " fill="#CBBEAE" transform="translate(230,153)"/>
<path d="M0 0 C1.98 0 3.96 0 6 0 C6 16.5 6 33 6 50 C4.02 50 2.04 50 0 50 C0 33.5 0 17 0 0 Z " fill="#373737" transform="translate(146,153)"/>
<path d="M0 0 C9 0 9 0 11.5 1.875 C14.84978505 6.62052883 14.67717299 11.3356471 14 17 C12.76197015 20.18264259 11.87871188 20.82627878 9 23 C6.03 23 3.06 23 0 23 C0 15.41 0 7.82 0 0 Z " fill="#030303" transform="translate(228,227)"/>
<path d="M0 0 C1.90625 0.48046875 1.90625 0.48046875 4.40625 2.54296875 C6.30100662 6.25353381 6.56779724 8.36417483 5.90625 12.48046875 C3.29056879 16.2058329 1.8458567 17.31562547 -2.65625 18.10546875 C-6.09375 17.48046875 -6.09375 17.48046875 -8.53125 15.41796875 C-10.49255697 11.73071164 -10.68324998 9.60696861 -10.09375 5.48046875 C-7.64609479 0.68714396 -5.14934595 -0.35545858 0 0 Z " fill="#CACACA" transform="translate(301.09375,341.51953125)"/>
<path d="M0 0 C1.94140625 0.37109375 1.94140625 0.37109375 4.44140625 1.80859375 C6.67061342 5.61682266 6.84846218 9.0724374 5.94140625 13.37109375 C3.37379735 16.46732801 1.82771231 17.22639072 -2.12109375 17.87109375 C-5.05859375 17.37109375 -5.05859375 17.37109375 -7.43359375 15.93359375 C-9.84346283 12.13341558 -9.69324858 8.74940872 -9.05859375 4.37109375 C-7.31963654 -0.08498411 -4.61237097 -0.28030984 0 0 Z " fill="#CDCDCD" transform="translate(197.05859375,341.62890625)"/>
<path d="M0 0 C7.98445596 -0.47668394 7.98445596 -0.47668394 12.0625 1.4375 C14.52555402 4.69508758 14.73070674 6.85476952 14.47265625 10.87109375 C14 13 14 13 12.0625 15.5625 C7.80528484 17.56078467 4.67748704 17.27925296 0 17 C0 11.39 0 5.78 0 0 Z " fill="#CFCFCF" transform="translate(272,387)"/>
<path d="M0 0 C1.9375 1.4375 1.9375 1.4375 3 4 C3.537354 8.12475961 3.54136452 11.69435616 1.9375 15.5625 C-1.06591067 17.79083695 -3.37886313 17.45264211 -7 17 C-8.6953125 15.81640625 -8.6953125 15.81640625 -10 14 C-10.3984375 11.40625 -10.3984375 11.40625 -10.375 8.5 C-10.38273438 7.5409375 -10.39046875 6.581875 -10.3984375 5.59375 C-10 3 -10 3 -8.6953125 1.18359375 C-5.8215988 -0.82270867 -3.36978653 -0.42122332 0 0 Z " fill="#D1D1D1" transform="translate(244,411)"/>
<path d="M0 0 C0.66 0 1.32 0 2 0 C3.17171756 3.28989086 4.33651088 6.58219102 5.5 9.875 C5.83386719 10.81214844 6.16773438 11.74929687 6.51171875 12.71484375 C6.98544922 14.05869141 6.98544922 14.05869141 7.46875 15.4296875 C7.76201172 16.25710449 8.05527344 17.08452148 8.35742188 17.93701172 C9 20 9 20 9 22 C3.72 22 -1.56 22 -7 22 C-4.8262084 14.60910856 -2.46996624 7.29705763 0 0 Z " fill="#060606" transform="translate(329,236)"/>
<path d="M0 0 C1.65 0 3.3 0 5 0 C6.65 2.97 8.3 5.94 10 9 C10.33 6.03 10.66 3.06 11 0 C12.32 0 13.64 0 15 0 C15 5.61 15 11.22 15 17 C13.35 17 11.7 17 10 17 C8.41796875 15.25 8.41796875 15.25 7.1875 13 C6.55908203 11.88625 6.55908203 11.88625 5.91796875 10.75 C5.61503906 10.1725 5.31210938 9.595 5 9 C4.67 11.64 4.34 14.28 4 17 C2.68 17 1.36 17 0 17 C0 11.39 0 5.78 0 0 Z " fill="#CBCBCB" transform="translate(212,342)"/>
<path d="M0 0 C1.65 0 3.3 0 5 0 C6.32 2.64 7.64 5.28 9 8 C9.33 5.36 9.66 2.72 10 0 C11.32 0 12.64 0 14 0 C14 5.61 14 11.22 14 17 C12.35 17 10.7 17 9 17 C7.02 13.535 7.02 13.535 5 10 C4.67 12.31 4.34 14.62 4 17 C2.68 17 1.36 17 0 17 C0 11.39 0 5.78 0 0 Z " fill="#C8C8C8" transform="translate(374,342)"/>
<path d="M0 0 C1.32 0 2.64 0 4 0 C4 2.31 4 4.62 4 7 C5.98 7 7.96 7 10 7 C10 4.69 10 2.38 10 0 C11.32 0 12.64 0 14 0 C14 5.61 14 11.22 14 17 C12.68 17 11.36 17 10 17 C10 14.69 10 12.38 10 10 C8.02 10 6.04 10 4 10 C4 12.31 4 14.62 4 17 C2.68 17 1.36 17 0 17 C0 11.39 0 5.78 0 0 Z " fill="#D1D1D1" transform="translate(337,342)"/>
<path d="M0 0 C1.32 0 2.64 0 4 0 C4 2.31 4 4.62 4 7 C5.98 7 7.96 7 10 7 C10 4.69 10 2.38 10 0 C11.32 0 12.64 0 14 0 C14 5.61 14 11.22 14 17 C12.68 17 11.36 17 10 17 C10 14.69 10 12.38 10 10 C8.02 10 6.04 10 4 10 C4 12.31 4 14.62 4 17 C2.68 17 1.36 17 0 17 C0 11.39 0 5.78 0 0 Z " fill="#CBCBCB" transform="translate(151,342)"/>
<path d="M0 0 C0.99 0 1.98 0 3 0 C3 16.17 3 32.34 3 49 C2.01 49 1.02 49 0 49 C0 32.83 0 16.66 0 0 Z " fill="#F5F1E7" transform="translate(59,154)"/>
<path d="M0 0 C3.20252983 0.54511146 4.69197237 1.16810592 6.9375 3.5 C6.9375 4.49 6.9375 5.48 6.9375 6.5 C5.6175 6.5 4.2975 6.5 2.9375 6.5 C2.6075 5.84 2.2775 5.18 1.9375 4.5 C0.6175 4.5 -0.7025 4.5 -2.0625 4.5 C-3.41689668 7.20879335 -3.12751451 9.50933268 -3.0625 12.5 C-1.4125 12.83 0.2375 13.16 1.9375 13.5 C2.5975 12.51 3.2575 11.52 3.9375 10.5 C2.9475 10.5 1.9575 10.5 0.9375 10.5 C0.9375 9.84 0.9375 9.18 0.9375 8.5 C2.9175 8.5 4.8975 8.5 6.9375 8.5 C6.9375 11.47 6.9375 14.44 6.9375 17.5 C6.2775 17.5 5.6175 17.5 4.9375 17.5 C4.9375 16.84 4.9375 16.18 4.9375 15.5 C3.9475 16.16 2.9575 16.82 1.9375 17.5 C-1 17.9375 -1 17.9375 -4.0625 17.5 C-7.18462113 14.78868428 -7.96834108 13.08587774 -8.625 9 C-8.0625 5.5 -8.0625 5.5 -5.9375 2.5625 C-3.0625 0.5 -3.0625 0.5 0 0 Z " fill="#C5C5C5" transform="translate(405.0625,341.5)"/>
<path d="M0 0 C1.32 0 2.64 0 4 0 C4.83919398 2.26882087 5.67151724 4.53977027 6.5 6.8125 C6.73847656 7.45509766 6.97695312 8.09769531 7.22265625 8.75976562 C8.27068746 11.64933739 9 13.90076061 9 17 C7.68 17 6.36 17 5 17 C5 15.68 5 14.36 5 13 C3.02 13.33 1.04 13.66 -1 14 C-1.33 14.99 -1.66 15.98 -2 17 C-3.32 17 -4.64 17 -6 17 C-4.49829538 11.01448228 -3.05773837 5.38744379 0 0 Z " fill="#BDBDBD" transform="translate(112,342)"/>
<path d="M0 0 C3.5625 0.25 3.5625 0.25 6.5625 2.25 C6.5625 3.24 6.5625 4.23 6.5625 5.25 C3.79973823 4.72731534 1.2364124 4.14130413 -1.4375 3.25 C-1.1075 4.24 -0.7775 5.23 -0.4375 6.25 C2.53753122 7.40835673 2.53753122 7.40835673 5.5625 8.25 C6.5625 9.25 6.5625 9.25 6.8125 12.1875 C6.73 13.198125 6.6475 14.20875 6.5625 15.25 C2.88903229 17.69897847 0.89893601 17.56537716 -3.4375 17.25 C-4.0975 16.59 -4.7575 15.93 -5.4375 15.25 C-5.4375 14.26 -5.4375 13.27 -5.4375 12.25 C-2.67473823 12.77268466 -0.1114124 13.35869587 2.5625 14.25 C2.2325 13.26 1.9025 12.27 1.5625 11.25 C-0.08301962 10.53272222 -1.75172289 9.86674772 -3.4375 9.25 C-5.4375 7.25 -5.4375 7.25 -5.6875 4.75 C-5.27610856 0.63608565 -4.0019337 0.29104972 0 0 Z " fill="#CACACA" transform="translate(238.4375,386.75)"/>
<path d="M0 0 C3.96 0 7.92 0 12 0 C12 0.99 12 1.98 12 3 C9.36 3 6.72 3 4 3 C4 4.32 4 5.64 4 7 C6.31 7 8.62 7 11 7 C11 7.99 11 8.98 11 10 C8.69 10 6.38 10 4 10 C4 11.32 4 12.64 4 14 C6.64 14 9.28 14 12 14 C12 14.99 12 15.98 12 17 C8.04 17 4.08 17 0 17 C0 11.39 0 5.78 0 0 Z " fill="#CCCCCC" transform="translate(214,387)"/>
<path d="M0 0 C3.5625 0.25 3.5625 0.25 6.5625 2.25 C6.5625 3.24 6.5625 4.23 6.5625 5.25 C3.79973823 4.72731534 1.2364124 4.14130413 -1.4375 3.25 C-1.1075 4.24 -0.7775 5.23 -0.4375 6.25 C2.53753122 7.40835673 2.53753122 7.40835673 5.5625 8.25 C6.5625 9.25 6.5625 9.25 6.8125 12.1875 C6.73 13.198125 6.6475 14.20875 6.5625 15.25 C2.88903229 17.69897847 0.89893601 17.56537716 -3.4375 17.25 C-4.0975 16.59 -4.7575 15.93 -5.4375 15.25 C-5.4375 14.26 -5.4375 13.27 -5.4375 12.25 C-2.67473823 12.77268466 -0.1114124 13.35869587 2.5625 14.25 C2.2325 13.26 1.9025 12.27 1.5625 11.25 C-0.08301962 10.53272222 -1.75172289 9.86674772 -3.4375 9.25 C-5.4375 7.25 -5.4375 7.25 -5.6875 4.75 C-5.27610856 0.63608565 -4.0019337 0.29104972 0 0 Z " fill="#CACACA" transform="translate(135.4375,341.75)"/>
<path d="M0 0 C3.63 0 7.26 0 11 0 C11 1.32 11 2.64 11 4 C8.36 4 5.72 4 3 4 C3.33 4.66 3.66 5.32 4 6 C6.32156597 6.40729228 8.6568787 6.74438677 11 7 C12.31372549 12.25490196 12.31372549 12.25490196 11 15.375 C9 17 9 17 5.4375 17.375 C2 17 2 17 0 15 C0 14.01 0 13.02 0 12 C2.31 12.33 4.62 12.66 7 13 C7 11.68 7 10.36 7 9 C4.69 9.33 2.38 9.66 0 10 C0 6.7 0 3.4 0 0 Z " fill="#CCCCCC" transform="translate(274,411)"/>
<path d="M0 0 C2.4375 1.875 2.4375 1.875 4 4 C4 4.66 4 5.32 4 6 C2.68 6 1.36 6 0 6 C-0.33 5.34 -0.66 4.68 -1 4 C-2.65 4.33 -4.3 4.66 -6 5 C-6 7.31 -6 9.62 -6 12 C-3.92446352 12.5534764 -2.15634036 13 0 13 C0 12.34 0 11.68 0 11 C1.32 11 2.64 11 4 11 C2.25 15.875 2.25 15.875 0 17 C-3.375 17.375 -3.375 17.375 -7 17 C-9.57687323 14.88564247 -10.74473348 13.32896485 -11.37890625 10.02734375 C-11.57547799 6.63489591 -11.24074916 4.38519866 -9.4375 1.5 C-6.05111671 -0.58392818 -3.90614682 -0.55802097 0 0 Z " fill="#CBCBCB" transform="translate(259,342)"/>
<path d="M0 0 C0.94552734 0.16242188 0.94552734 0.16242188 1.91015625 0.328125 C3.91015625 3.328125 3.91015625 3.328125 3.84765625 6.265625 C2.69595686 10.02784302 1.13007462 11.18151275 -2.08984375 13.328125 C0.88015625 13.823125 0.88015625 13.823125 3.91015625 14.328125 C3.91015625 15.318125 3.91015625 16.308125 3.91015625 17.328125 C-0.04984375 17.328125 -4.00984375 17.328125 -8.08984375 17.328125 C-8.08984375 13.328125 -8.08984375 13.328125 -6.59375 11.765625 C-5.95308594 11.29125 -5.31242187 10.816875 -4.65234375 10.328125 C-1.76614482 8.1824256 -0.6407468 6.9283928 -0.08984375 3.328125 C-1.40984375 3.328125 -2.72984375 3.328125 -4.08984375 3.328125 C-4.08984375 4.318125 -4.08984375 5.308125 -4.08984375 6.328125 C-5.40984375 6.328125 -6.72984375 6.328125 -8.08984375 6.328125 C-6.98090958 0.14977748 -6.38922764 0.23191389 0 0 Z " fill="#CACACA" transform="translate(262.08984375,410.671875)"/>
<path d="M0 0 C3.5625 0.1875 3.5625 0.1875 5.5625 2.1875 C6 5 6 5 5.5625 8.1875 C3.0625 11.0625 3.0625 11.0625 0.5625 13.1875 C3.5325 13.6825 3.5325 13.6825 6.5625 14.1875 C6.5625 15.1775 6.5625 16.1675 6.5625 17.1875 C2.6025 17.1875 -1.3575 17.1875 -5.4375 17.1875 C-4.32217875 11.61089374 -4.32217875 11.61089374 -1.375 9.5625 C-0.405625 8.77875 0.56375 7.995 1.5625 7.1875 C1.5625 6.1975 1.5625 5.2075 1.5625 4.1875 C0.5725 4.1875 -0.4175 4.1875 -1.4375 4.1875 C-1.7675 4.8475 -2.0975 5.5075 -2.4375 6.1875 C-3.7575 6.1875 -5.0775 6.1875 -6.4375 6.1875 C-4.14464286 0.22607143 -4.14464286 0.22607143 0 0 Z " fill="#D0D0D0" transform="translate(220.4375,410.8125)"/>
<path d="M0 0 C3.63 0 7.26 0 11 0 C11 0.99 11 1.98 11 3 C8.69 3 6.38 3 4 3 C4 4.32 4 5.64 4 7 C6.31 7 8.62 7 11 7 C11 7.99 11 8.98 11 10 C9.02 10 7.04 10 5 10 C5 12.31 5 14.62 5 17 C3.35 17 1.7 17 0 17 C0 11.39 0 5.78 0 0 Z " fill="#BDBDBD" transform="translate(87,342)"/>
<path d="M0 0 C0.99 0.33 1.98 0.66 3 1 C2.98428955 2.10512939 2.9685791 3.21025879 2.95239258 4.34887695 C2.89811443 8.44694741 2.86365776 12.54498607 2.83520508 16.64331055 C2.82011359 18.41745343 2.79963809 20.19155898 2.77368164 21.96557617 C2.73731359 24.51490487 2.72027762 27.06374059 2.70703125 29.61328125 C2.69154739 30.40712723 2.67606354 31.20097321 2.66011047 32.01887512 C2.62528775 34.51589686 2.62528775 34.51589686 3 38 C3.99 38.99 4.98 39.98 6 41 C2.37 41 -1.26 41 -5 41 C-4.67 40.34 -4.34 39.68 -4 39 C-3.01 39 -2.02 39 -1 39 C-0.67 26.13 -0.34 13.26 0 0 Z " fill="#DEDEDE" transform="translate(44,236)"/>
<path d="M0 0 C3.96 0 7.92 0 12 0 C12 0.99 12 1.98 12 3 C10.68 3 9.36 3 8 3 C8 7.62 8 12.24 8 17 C6.68 17 5.36 17 4 17 C4 12.38 4 7.76 4 3 C2.68 3 1.36 3 0 3 C0 2.01 0 1.02 0 0 Z " fill="#D2D2D2" transform="translate(316,342)"/>
<path d="M0 0 C1.32 0 2.64 0 4 0 C4 4.62 4 9.24 4 14 C6.31 14 8.62 14 11 14 C11 14.99 11 15.98 11 17 C7.37 17 3.74 17 0 17 C0 11.39 0 5.78 0 0 Z " fill="#D2D2D2" transform="translate(272,342)"/>
<path d="M0 0 C3.63 0 7.26 0 11 0 C9.515 1.485 9.515 1.485 8 3 C7.6692937 5.50728032 7.5117282 7.78137387 7.48828125 10.29296875 C7.46135445 11.35201164 7.46135445 11.35201164 7.43388367 12.43244934 C7.37976822 14.68407241 7.34588278 16.93548343 7.3125 19.1875 C7.27932781 20.71552431 7.24483823 22.24352063 7.20898438 23.77148438 C7.12404175 27.51416989 7.05723752 31.25679241 7 35 C6.01 34.67 5.02 34.34 4 34 C4.02094727 33.07662842 4.04189453 32.15325684 4.06347656 31.2019043 C4.13166531 27.77455677 4.18180462 24.3479302 4.21972656 20.92016602 C4.23983759 19.43697739 4.26713074 17.95386801 4.30175781 16.47094727 C4.35030352 14.33850565 4.37297195 12.20711223 4.390625 10.07421875 C4.41157227 8.79119873 4.43251953 7.50817871 4.45410156 6.1862793 C4.22932129 4.60907104 4.22932129 4.60907104 4 3 C2.68 2.01 1.36 1.02 0 0 Z " fill="#D3D3D3" transform="translate(73,225)"/>
<path d="M0 0 C4.29 0 8.58 0 13 0 C13 0.99 13 1.98 13 3 C11.35 3 9.7 3 8 3 C8 7.62 8 12.24 8 17 C7.01 17 6.02 17 5 17 C5 12.38 5 7.76 5 3 C3.35 3 1.7 3 0 3 C0 2.01 0 1.02 0 0 Z " fill="#D7D7D7" transform="translate(252,387)"/>
<path d="M0 0 C2.4375 0.375 2.4375 0.375 5 1 C5.33 1.66 5.66 2.32 6 3 C6.99 3.66 7.98 4.32 9 5 C7.02 5 5.04 5 3 5 C3 5.66 3 6.32 3 7 C3.99 7 4.98 7 6 7 C5.34 8.32 4.68 9.64 4 11 C-0.875 10.125 -0.875 10.125 -2 9 C-2.26293056 4.96839809 -2.29404844 3.44107266 0 0 Z " fill="#1C1C1C" transform="translate(403,345)"/>
<path d="M0 0 C1.65 0.33 3.3 0.66 5 1 C6.25 7.625 6.25 7.625 4 11 C2.35 10.67 0.7 10.34 -1 10 C-2.25 3.375 -2.25 3.375 0 0 Z " fill="#191919" transform="translate(297,345)"/>
<path d="M0 0 C1.32 0 2.64 0 4 0 C4 5.61 4 11.22 4 17 C2.68 17 1.36 17 0 17 C0 11.39 0 5.78 0 0 Z " fill="#C3C3C3" transform="translate(360,342)"/>
<path d="M0 0 C1.32 0 2.64 0 4 0 C4 5.61 4 11.22 4 17 C2.68 17 1.36 17 0 17 C0 11.39 0 5.78 0 0 Z " fill="#BFBFBF" transform="translate(175,342)"/>
<path d="M0 0 C3.53571429 0.53571429 3.53571429 0.53571429 5 2 C5.1875 5.4375 5.1875 5.4375 5 9 C4.34 9.66 3.68 10.32 3 11 C-0.53571429 10.46428571 -0.53571429 10.46428571 -2 9 C-2.1875 5.5625 -2.1875 5.5625 -2 2 C-1.34 1.34 -0.68 0.68 0 0 Z " fill="#0B0B0B" transform="translate(194,345)"/>
<path d="M0 0 C3.63 0 7.26 0 11 0 C11 1.32 11 2.64 11 4 C8.36 4.33 5.72 4.66 3 5 C3 6.65 3 8.3 3 10 C2.01 10 1.02 10 0 10 C0 6.7 0 3.4 0 0 Z " fill="#C6C6C6" transform="translate(274,411)"/>
<path d="M0 0 C0.33 0 0.66 0 1 0 C0.59060025 6.76215448 -0.56953809 12.67162748 -3 19 C-1.68 19.66 -0.36 20.32 1 21 C-2.63 21 -6.26 21 -10 21 C-9.23300781 20.17242187 -8.46601563 19.34484375 -7.67578125 18.4921875 C-4.75257722 14.98434266 -3.46843686 11.45918637 -2.1875 7.125 C-1.97158203 6.43664062 -1.75566406 5.74828125 -1.53320312 5.0390625 C-1.00951681 3.36326629 -0.50293046 1.68214187 0 0 Z " fill="#E5E5E5" transform="translate(320,256)"/>
<path d="M0 0 C4.875 0.875 4.875 0.875 6 2 C6.125 5.5 6.125 5.5 6 9 C5.67 9.33 5.34 9.66 5 10 C3.35 10 1.7 10 0 10 C0 6.7 0 3.4 0 0 Z " fill="#090909" transform="translate(276,390)"/>
<path d="M0 0 C2.0625 0.4375 2.0625 0.4375 4 1 C4.125 8.75 4.125 8.75 3 11 C1.68 10.67 0.36 10.34 -1 10 C-1.02689216 8.52093108 -1.04634621 7.04172517 -1.0625 5.5625 C-1.07410156 4.73878906 -1.08570313 3.91507812 -1.09765625 3.06640625 C-1 1 -1 1 0 0 Z " fill="#161616" transform="translate(239,414)"/>
<path d="M0 0 C0.99 0.33 1.98 0.66 3 1 C3 1.66 3 2.32 3 3 C2.34 3 1.68 3 1 3 C0.88785156 3.66386719 0.77570313 4.32773438 0.66015625 5.01171875 C-0.15557772 8.70424235 -1.34180648 12.23932148 -2.5625 15.8125 C-2.79646484 16.50537109 -3.03042969 17.19824219 -3.27148438 17.91210938 C-3.84491676 19.60900114 -4.42208169 21.30463078 -5 23 C-5.66 23 -6.32 23 -7 23 C-4.97810834 15.21878058 -2.61369593 7.60227292 0 0 Z " fill="#BEBEBE" transform="translate(328,233)"/>
<path d="M0 0 C1.98 0 3.96 0 6 0 C6 2.97 6 5.94 6 9 C5.34 9 4.68 9 4 9 C4 8.34 4 7.68 4 7 C2.68 7.33 1.36 7.66 0 8 C0.99 6.02 1.98 4.04 3 2 C2.01 2 1.02 2 0 2 C0 1.34 0 0.68 0 0 Z " fill="#D4D4D4" transform="translate(406,350)"/>
<path d="M0 0 C1.32 0.33 2.64 0.66 4 1 C3.67 2.65 3.34 4.3 3 6 C0.61435923 5.42415568 -1.66682784 4.77772405 -4 4 C-4.33 4.66 -4.66 5.32 -5 6 C-5 5.01 -5 4.02 -5 3 C-3.68 3 -2.36 3 -1 3 C-0.67 2.01 -0.34 1.02 0 0 Z " fill="#2E2E2E" transform="translate(278,419)"/>
<path d="M0 0 C3.61855575 0.62388892 4.1709277 1.1709277 7 4 C3.37 4 -0.26 4 -4 4 C-3.67 3.34 -3.34 2.68 -3 2 C-2.01 2 -1.02 2 0 2 C0 1.34 0 0.68 0 0 Z " fill="#EFEFEF" transform="translate(43,273)"/>
<path d="M0 0 C3.63 0 7.26 0 11 0 C9.68 1.32 8.36 2.64 7 4 C4.08482708 2.92598892 2.22189824 2.22189824 0 0 Z " fill="#EEEEEE" transform="translate(73,225)"/>
<path d="M0 0 C0.99 0.33 1.98 0.66 3 1 C2.34 2.65 1.68 4.3 1 6 C-0.32 6 -1.64 6 -3 6 C-1.125 1.125 -1.125 1.125 0 0 Z " fill="#C0C0C0" transform="translate(217,411)"/>
<path d="M0 0 C0.33 0 0.66 0 1 0 C0.88557539 1.60495567 0.75805306 3.20898119 0.625 4.8125 C0.55539062 5.70582031 0.48578125 6.59914063 0.4140625 7.51953125 C0 10 0 10 -2 13 C-3.18771723 9.57056481 -2.80226223 7.62215325 -1.5625 4.25 C-1.27503906 3.45078125 -0.98757813 2.6515625 -0.69140625 1.828125 C-0.46324219 1.22484375 -0.23507812 0.6215625 0 0 Z " fill="#B5B5B5" transform="translate(320,256)"/>
<path d="M0 0 C0 0.99 0 1.98 0 3 C-2.97 2.67 -5.94 2.34 -9 2 C-9 1.34 -9 0.68 -9 0 C-5.62182575 -0.84454356 -3.32534757 -1.10844919 0 0 Z " fill="#242424" transform="translate(241,398)"/>
<path d="M0 0 C0 0.99 0 1.98 0 3 C-2.97 2.67 -5.94 2.34 -9 2 C-9 1.34 -9 0.68 -9 0 C-5.62182575 -0.84454356 -3.32534757 -1.10844919 0 0 Z " fill="#242424" transform="translate(138,353)"/>
</svg>
